<?xml version="1.0" encoding="us-ascii" standalone="no"?><svg xmlns="http://www.w3.org/2000/svg" xmlns:xlink="http://www.w3.org/1999/xlink" contentStyleType="text/css" height="483px" preserveAspectRatio="none" style="width:1655px;height:483px;background:#FFFFFF;" version="1.1" viewBox="0 0 1655 483" width="1655px" zoomAndPan="magnify"><defs/><g><!--cluster Social Media Application--><g id="cluster_Social Media Application"><path d="M8.5,6 L198.5,6 A3.75,3.75 0 0 1 201,8.5 L208,28.2969 L1645.5,28.2969 A2.5,2.5 0 0 1 1648,30.7969 L1648,474.39 A2.5,2.5 0 0 1 1645.5,476.89 L8.5,476.89 A2.5,2.5 0 0 1 6,474.39 L6,8.5 A2.5,2.5 0 0 1 8.5,6 " fill="none" style="stroke:#000000;stroke-width:1.5;"/><line style="stroke:#000000;stroke-width:1.5;" x1="6" x2="208" y1="28.2969" y2="28.2969"/><text fill="#000000" font-family="sans-serif" font-size="14" font-weight="bold" lengthAdjust="spacing" textLength="189" x="10" y="20.9951">Social Media Application</text></g><!--cluster User Interface Module--><g id="cluster_User Interface Module"><path d="M663.5,57 L839.5,57 A3.75,3.75 0 0 1 842,59.5 L849,79.2969 L1027.5,79.2969 A2.5,2.5 0 0 1 1030,81.7969 L1030,167.8 A2.5,2.5 0 0 1 1027.5,170.3 L663.5,170.3 A2.5,2.5 0 0 1 661,167.8 L661,59.5 A2.5,2.5 0 0 1 663.5,57 " fill="none" style="stroke:#000000;stroke-width:1.5;"/><line style="stroke:#000000;stroke-width:1.5;" x1="661" x2="849" y1="79.2969" y2="79.2969"/><text fill="#000000" font-family="sans-serif" font-size="14" font-weight="bold" lengthAdjust="spacing" textLength="175" x="665" y="71.9951">User Interface Module</text></g><!--cluster User Management Module--><g id="cluster_User Management Module"><path d="M40.5,210.3 L246.5,210.3 A3.75,3.75 0 0 1 249,212.8 L256,232.5969 L426.5,232.5969 A2.5,2.5 0 0 1 429,235.0969 L429,321.09 A2.5,2.5 0 0 1 426.5,323.59 L40.5,323.59 A2.5,2.5 0 0 1 38,321.09 L38,212.8 A2.5,2.5 0 0 1 40.5,210.3 " fill="none" style="stroke:#000000;stroke-width:1.5;"/><line style="stroke:#000000;stroke-width:1.5;" x1="38" x2="256" y1="232.5969" y2="232.5969"/><text fill="#000000" font-family="sans-serif" font-size="14" font-weight="bold" lengthAdjust="spacing" textLength="205" x="42" y="225.2951">User Management Module</text></g><!--cluster Post Management Module--><g id="cluster_Post Management Module"><path d="M471.5,210.3 L675.5,210.3 A3.75,3.75 0 0 1 678,212.8 L685,232.5969 L811.5,232.5969 A2.5,2.5 0 0 1 814,235.0969 L814,321.09 A2.5,2.5 0 0 1 811.5,323.59 L471.5,323.59 A2.5,2.5 0 0 1 469,321.09 L469,212.8 A2.5,2.5 0 0 1 471.5,210.3 " fill="none" style="stroke:#000000;stroke-width:1.5;"/><line style="stroke:#000000;stroke-width:1.5;" x1="469" x2="685" y1="232.5969" y2="232.5969"/><text fill="#000000" font-family="sans-serif" font-size="14" font-weight="bold" lengthAdjust="spacing" textLength="203" x="473" y="225.2951">Post Management Module</text></g><!--cluster Comment Management Module--><g id="cluster_Comment Management Module"><path d="M856.5,210.3 L1100.5,210.3 A3.75,3.75 0 0 1 1103,212.8 L1110,232.5969 L1251.5,232.5969 A2.5,2.5 0 0 1 1254,235.0969 L1254,321.09 A2.5,2.5 0 0 1 1251.5,323.59 L856.5,323.59 A2.5,2.5 0 0 1 854,321.09 L854,212.8 A2.5,2.5 0 0 1 856.5,210.3 " fill="none" style="stroke:#000000;stroke-width:1.5;"/><line style="stroke:#000000;stroke-width:1.5;" x1="854" x2="1110" y1="232.5969" y2="232.5969"/><text fill="#000000" font-family="sans-serif" font-size="14" font-weight="bold" lengthAdjust="spacing" textLength="243" x="858" y="225.2951">Comment Management Module</text></g><!--cluster Like Management Module--><g id="cluster_Like Management Module"><path d="M1296.5,210.3 L1497.5,210.3 A3.75,3.75 0 0 1 1500,212.8 L1507,232.5969 L1613.5,232.5969 A2.5,2.5 0 0 1 1616,235.0969 L1616,321.09 A2.5,2.5 0 0 1 1613.5,323.59 L1296.5,323.59 A2.5,2.5 0 0 1 1294,321.09 L1294,212.8 A2.5,2.5 0 0 1 1296.5,210.3 " fill="none" style="stroke:#000000;stroke-width:1.5;"/><line style="stroke:#000000;stroke-width:1.5;" x1="1294" x2="1507" y1="232.5969" y2="232.5969"/><text fill="#000000" font-family="sans-serif" font-size="14" font-weight="bold" lengthAdjust="spacing" textLength="200" x="1298" y="225.2951">Like Management Module</text></g><!--cluster Database Module--><g id="cluster_Database Module"><path d="M351.5,355.59 L487.5,355.59 A3.75,3.75 0 0 1 490,358.09 L497,377.8869 L999.5,377.8869 A2.5,2.5 0 0 1 1002,380.3869 L1002,450.39 A2.5,2.5 0 0 1 999.5,452.89 L351.5,452.89 A2.5,2.5 0 0 1 349,450.39 L349,358.09 A2.5,2.5 0 0 1 351.5,355.59 " fill="none" style="stroke:#000000;stroke-width:1.5;"/><line style="stroke:#000000;stroke-width:1.5;" x1="349" x2="497" y1="377.8869" y2="377.8869"/><text fill="#000000" font-family="sans-serif" font-size="14" font-weight="bold" lengthAdjust="spacing" textLength="135" x="353" y="370.5851">Database Module</text></g><!--entity Posts Feed View--><g id="elem_Posts Feed View"><rect fill="#F1F1F1" height="46.2969" rx="2.5" ry="2.5" style="stroke:#181818;stroke-width:0.5;" width="154" x="852" y="100"/><rect fill="#F1F1F1" height="10" style="stroke:#181818;stroke-width:0.5;" width="15" x="986" y="105"/><rect fill="#F1F1F1" height="2" style="stroke:#181818;stroke-width:0.5;" width="4" x="984" y="107"/><rect fill="#F1F1F1" height="2" style="stroke:#181818;stroke-width:0.5;" width="4" x="984" y="111"/><text fill="#000000" font-family="sans-serif" font-size="14" lengthAdjust="spacing" textLength="114" x="867" y="132.9951">Posts Feed View</text></g><!--entity Login View--><g id="elem_Login View"><rect fill="#F1F1F1" height="46.2969" rx="2.5" ry="2.5" style="stroke:#181818;stroke-width:0.5;" width="113" x="704.5" y="100"/><rect fill="#F1F1F1" height="10" style="stroke:#181818;stroke-width:0.5;" width="15" x="797.5" y="105"/><rect fill="#F1F1F1" height="2" style="stroke:#181818;stroke-width:0.5;" width="4" x="795.5" y="107"/><rect fill="#F1F1F1" height="2" style="stroke:#181818;stroke-width:0.5;" width="4" x="795.5" y="111"/><text fill="#000000" font-family="sans-serif" font-size="14" lengthAdjust="spacing" textLength="73" x="719.5" y="132.9951">Login View</text></g><!--entity Register Account--><g id="elem_Register Account"><rect fill="#F1F1F1" height="46.2969" rx="2.5" ry="2.5" style="stroke:#181818;stroke-width:0.5;" width="159" x="246.5" y="253.3"/><rect fill="#F1F1F1" height="10" style="stroke:#181818;stroke-width:0.5;" width="15" x="385.5" y="258.3"/><rect fill="#F1F1F1" height="2" style="stroke:#181818;stroke-width:0.5;" width="4" x="383.5" y="260.3"/><rect fill="#F1F1F1" height="2" style="stroke:#181818;stroke-width:0.5;" width="4" x="383.5" y="264.3"/><text fill="#000000" font-family="sans-serif" font-size="14" lengthAdjust="spacing" textLength="119" x="261.5" y="286.2951">Register Account</text></g><!--entity Login/Logout--><g id="elem_Login/Logout"><rect fill="#F1F1F1" height="46.2969" rx="2.5" ry="2.5" style="stroke:#181818;stroke-width:0.5;" width="130" x="81" y="253.3"/><rect fill="#F1F1F1" height="10" style="stroke:#181818;stroke-width:0.5;" width="15" x="191" y="258.3"/><rect fill="#F1F1F1" height="2" style="stroke:#181818;stroke-width:0.5;" width="4" x="189" y="260.3"/><rect fill="#F1F1F1" height="2" style="stroke:#181818;stroke-width:0.5;" width="4" x="189" y="264.3"/><text fill="#000000" font-family="sans-serif" font-size="14" lengthAdjust="spacing" textLength="90" x="96" y="286.2951">Login/Logout</text></g><!--entity Create Post--><g id="elem_Create Post"><rect fill="#F1F1F1" height="46.2969" rx="2.5" ry="2.5" style="stroke:#181818;stroke-width:0.5;" width="121" x="668.5" y="253.3"/><rect fill="#F1F1F1" height="10" style="stroke:#181818;stroke-width:0.5;" width="15" x="769.5" y="258.3"/><rect fill="#F1F1F1" height="2" style="stroke:#181818;stroke-width:0.5;" width="4" x="767.5" y="260.3"/><rect fill="#F1F1F1" height="2" style="stroke:#181818;stroke-width:0.5;" width="4" x="767.5" y="264.3"/><text fill="#000000" font-family="sans-serif" font-size="14" lengthAdjust="spacing" textLength="81" x="683.5" y="286.2951">Create Post</text></g><!--entity Delete Post--><g id="elem_Delete Post"><rect fill="#F1F1F1" height="46.2969" rx="2.5" ry="2.5" style="stroke:#181818;stroke-width:0.5;" width="121" x="512.5" y="253.3"/><rect fill="#F1F1F1" height="10" style="stroke:#181818;stroke-width:0.5;" width="15" x="613.5" y="258.3"/><rect fill="#F1F1F1" height="2" style="stroke:#181818;stroke-width:0.5;" width="4" x="611.5" y="260.3"/><rect fill="#F1F1F1" height="2" style="stroke:#181818;stroke-width:0.5;" width="4" x="611.5" y="264.3"/><text fill="#000000" font-family="sans-serif" font-size="14" lengthAdjust="spacing" textLength="81" x="527.5" y="286.2951">Delete Post</text></g><!--entity Add Comment--><g id="elem_Add Comment"><rect fill="#F1F1F1" height="46.2969" rx="2.5" ry="2.5" style="stroke:#181818;stroke-width:0.5;" width="139" x="1090.5" y="253.3"/><rect fill="#F1F1F1" height="10" style="stroke:#181818;stroke-width:0.5;" width="15" x="1209.5" y="258.3"/><rect fill="#F1F1F1" height="2" style="stroke:#181818;stroke-width:0.5;" width="4" x="1207.5" y="260.3"/><rect fill="#F1F1F1" height="2" style="stroke:#181818;stroke-width:0.5;" width="4" x="1207.5" y="264.3"/><text fill="#000000" font-family="sans-serif" font-size="14" lengthAdjust="spacing" textLength="99" x="1105.5" y="286.2951">Add Comment</text></g><!--entity Delete Comment--><g id="elem_Delete Comment"><rect fill="#F1F1F1" height="46.2969" rx="2.5" ry="2.5" style="stroke:#181818;stroke-width:0.5;" width="158" x="897" y="253.3"/><rect fill="#F1F1F1" height="10" style="stroke:#181818;stroke-width:0.5;" width="15" x="1035" y="258.3"/><rect fill="#F1F1F1" height="2" style="stroke:#181818;stroke-width:0.5;" width="4" x="1033" y="260.3"/><rect fill="#F1F1F1" height="2" style="stroke:#181818;stroke-width:0.5;" width="4" x="1033" y="264.3"/><text fill="#000000" font-family="sans-serif" font-size="14" lengthAdjust="spacing" textLength="118" x="912" y="286.2951">Delete Comment</text></g><!--entity Like Post--><g id="elem_Like Post"><rect fill="#F1F1F1" height="46.2969" rx="2.5" ry="2.5" style="stroke:#181818;stroke-width:0.5;" width="102" x="1490" y="253.3"/><rect fill="#F1F1F1" height="10" style="stroke:#181818;stroke-width:0.5;" width="15" x="1572" y="258.3"/><rect fill="#F1F1F1" height="2" style="stroke:#181818;stroke-width:0.5;" width="4" x="1570" y="260.3"/><rect fill="#F1F1F1" height="2" style="stroke:#181818;stroke-width:0.5;" width="4" x="1570" y="264.3"/><text fill="#000000" font-family="sans-serif" font-size="14" lengthAdjust="spacing" textLength="62" x="1505" y="286.2951">Like Post</text></g><!--entity Unlike Post--><g id="elem_Unlike Post"><rect fill="#F1F1F1" height="46.2969" rx="2.5" ry="2.5" style="stroke:#181818;stroke-width:0.5;" width="117" x="1337.5" y="253.3"/><rect fill="#F1F1F1" height="10" style="stroke:#181818;stroke-width:0.5;" width="15" x="1434.5" y="258.3"/><rect fill="#F1F1F1" height="2" style="stroke:#181818;stroke-width:0.5;" width="4" x="1432.5" y="260.3"/><rect fill="#F1F1F1" height="2" style="stroke:#181818;stroke-width:0.5;" width="4" x="1432.5" y="264.3"/><text fill="#000000" font-family="sans-serif" font-size="14" lengthAdjust="spacing" textLength="77" x="1352.5" y="286.2951">Unlike Post</text></g><!--entity Users Store--><g id="elem_Users Store"><rect fill="#F1F1F1" height="46.2969" rx="2.5" ry="2.5" style="stroke:#181818;stroke-width:0.5;" width="121" x="365.5" y="390.59"/><rect fill="#F1F1F1" height="10" style="stroke:#181818;stroke-width:0.5;" width="15" x="466.5" y="395.59"/><rect fill="#F1F1F1" height="2" style="stroke:#181818;stroke-width:0.5;" width="4" x="464.5" y="397.59"/><rect fill="#F1F1F1" height="2" style="stroke:#181818;stroke-width:0.5;" width="4" x="464.5" y="401.59"/><text fill="#000000" font-family="sans-serif" font-size="14" lengthAdjust="spacing" textLength="81" x="380.5" y="423.5851">Users Store</text></g><!--entity Posts Store--><g id="elem_Posts Store"><rect fill="#F1F1F1" height="46.2969" rx="2.5" ry="2.5" style="stroke:#181818;stroke-width:0.5;" width="120" x="522" y="390.59"/><rect fill="#F1F1F1" height="10" style="stroke:#181818;stroke-width:0.5;" width="15" x="622" y="395.59"/><rect fill="#F1F1F1" height="2" style="stroke:#181818;stroke-width:0.5;" width="4" x="620" y="397.59"/><rect fill="#F1F1F1" height="2" style="stroke:#181818;stroke-width:0.5;" width="4" x="620" y="401.59"/><text fill="#000000" font-family="sans-serif" font-size="14" lengthAdjust="spacing" textLength="80" x="537" y="423.5851">Posts Store</text></g><!--entity Comments Store--><g id="elem_Comments Store"><rect fill="#F1F1F1" height="46.2969" rx="2.5" ry="2.5" style="stroke:#181818;stroke-width:0.5;" width="157" x="677.5" y="390.59"/><rect fill="#F1F1F1" height="10" style="stroke:#181818;stroke-width:0.5;" width="15" x="814.5" y="395.59"/><rect fill="#F1F1F1" height="2" style="stroke:#181818;stroke-width:0.5;" width="4" x="812.5" y="397.59"/><rect fill="#F1F1F1" height="2" style="stroke:#181818;stroke-width:0.5;" width="4" x="812.5" y="401.59"/><text fill="#000000" font-family="sans-serif" font-size="14" lengthAdjust="spacing" textLength="117" x="692.5" y="423.5851">Comments Store</text></g><!--entity Likes Store--><g id="elem_Likes Store"><rect fill="#F1F1F1" height="46.2969" rx="2.5" ry="2.5" style="stroke:#181818;stroke-width:0.5;" width="116" x="870" y="390.59"/><rect fill="#F1F1F1" height="10" style="stroke:#181818;stroke-width:0.5;" width="15" x="966" y="395.59"/><rect fill="#F1F1F1" height="2" style="stroke:#181818;stroke-width:0.5;" width="4" x="964" y="397.59"/><rect fill="#F1F1F1" height="2" style="stroke:#181818;stroke-width:0.5;" width="4" x="964" y="401.59"/><text fill="#000000" font-family="sans-serif" font-size="14" lengthAdjust="spacing" textLength="76" x="885" y="423.5851">Likes Store</text></g><!--link User Interface Module to User Management Module--><g id="link_User Interface Module_User Management Module"><path d="M660.403,124.5536 C660.109,124.5679 659.8078,124.5825 659.4996,124.5975 C658.8831,124.6275 658.2383,124.6591 657.5656,124.6921 C656.2203,124.7581 654.7636,124.8301 653.1995,124.9079 C650.0713,125.0637 646.5133,125.2431 642.557,125.4461 C626.732,126.258 604.5349,127.4463 577.9817,129.0008 C524.8753,132.1097 454.3444,136.6831 382.5163,142.6388 C238.86,154.55 90.015,171.99 65,194.3 C61.6525,197.285 58.8372,200.7369 56.4743,204.4988 C55.8835,205.4393 55.3211,206.3991 54.7856,207.3759 C54.5179,207.8643 54.257,208.3569 54.0026,208.8535 C53.8754,209.1017 53.7499,209.351 53.626,209.6012 C53.564,209.7263 56.129,204.4571 56.0679,204.5826 " fill="none" id="User Interface Module-to-User Management Module" style="stroke:#181818;stroke-width:1.0;stroke-dasharray:7.0,7.0;"/><polygon fill="#181818" points="53.4414,209.9772,60.9775,203.6364,55.6301,205.4817,53.7848,200.1343,53.4414,209.9772" style="stroke:#181818;stroke-width:1.0;"/></g><!--link User Interface Module to Post Management Module--><g id="link_User Interface Module_Post Management Module"><path d="M660.8194,124.8685 C660.6925,124.8818 660.5643,124.8953 660.4347,124.9091 C660.1756,124.9366 659.9112,124.965 659.6417,124.9943 C658.5634,125.1115 657.402,125.2433 656.1628,125.3911 C653.6843,125.6866 650.8948,126.0461 647.837,126.4808 C635.6059,128.2197 619.0831,131.1631 601.0138,136.0388 C564.875,145.79 522.55,163.27 496,194.3 C493.0838,197.7075 490.5952,201.4797 488.4734,205.4783 C487.943,206.4779 487.4355,207.4917 486.9499,208.5175 C486.7072,209.0304 488.9191,204.0689 488.6872,204.5875 " fill="none" id="User Interface Module-to-Post Management Module" style="stroke:#181818;stroke-width:1.0;stroke-dasharray:7.0,7.0;"/><polygon fill="#181818" points="486.238,210.0649,493.5633,203.4816,488.279,205.5004,486.2602,200.216,486.238,210.0649" style="stroke:#181818;stroke-width:1.0;"/></g><!--link User Interface Module to Comment Management Module--><g id="link_User Interface Module_Comment Management Module"><path d="M676.932,170.569 C676.9794,170.6685 677.027,170.7679 677.0748,170.8671 C677.2663,171.264 677.4622,171.6585 677.6627,172.0504 C678.0635,172.8343 678.4823,173.6076 678.92,174.3686 C679.7952,175.8904 680.7458,177.3626 681.7779,178.7694 C683.842,181.583 686.2325,184.135 689,186.3 C709.53,202.35 783.35,181.4 806,194.3 C824.745,204.97 838.605,224.795 847.8475,242.1775 C850.1581,246.5231 849.7168,245.2451 851.4544,249.1042 " fill="none" id="User Interface Module-to-Comment Management Module" style="stroke:#181818;stroke-width:1.0;stroke-dasharray:7.0,7.0;"/><polygon fill="#181818" points="853.9178,254.5752,853.87,244.7265,851.8649,250.016,846.5754,248.011,853.9178,254.5752" style="stroke:#181818;stroke-width:1.0;"/></g><!--link User Interface Module to Like Management Module--><g id="link_User Interface Module_Like Management Module"><path d="M676.5949,170.5257 C676.6893,170.7242 676.7848,170.9222 676.8815,171.1194 C677.0747,171.514 677.2726,171.906 677.475,172.2953 C677.88,173.0737 678.3036,173.8409 678.7466,174.5948 C679.6326,176.1027 680.5964,177.5575 681.6446,178.9433 C683.7409,181.7148 686.175,184.21 689,186.3 C713.88,204.7 1218.7,179.72 1246,194.3 C1265.025,204.46 1278.8875,224.275 1288.0613,241.78 C1289.208,243.9681 1290.2814,246.1202 1291.2825,248.2127 C1291.7831,249.259 1292.2656,250.2904 1292.7301,251.3041 C1292.9623,251.8109 1293.1901,252.3132 1293.4134,252.8108 C1293.525,253.0596 1293.6356,253.3072 1293.745,253.5535 C1293.7997,253.6766 1291.4291,248.3114 1291.4832,248.4339 " fill="none" id="User Interface Module-to-Like Management Module" style="stroke:#181818;stroke-width:1.0;stroke-dasharray:7.0,7.0;"/><polygon fill="#181818" points="1293.9082,253.922,1293.9294,244.0732,1291.8874,249.3486,1286.612,247.3066,1293.9082,253.922" style="stroke:#181818;stroke-width:1.0;"/></g><!--link User Management Module to Users Store--><g id="link_User Management Module_Users Store"><path d="M53.938,323.8373 C53.9837,323.9377 54.0297,324.038 54.0759,324.1382 C54.1683,324.3385 54.2618,324.5383 54.3563,324.7375 C54.7343,325.5346 55.1291,326.3231 55.5413,327.1013 C56.3656,328.6575 57.2597,330.1723 58.2293,331.6308 C60.1686,334.5478 62.41,337.24 65,339.59 C108.33,378.92 268.2058,398.8437 359.2758,407.3237 " fill="none" id="User Management Module-to-Users Store" style="stroke:#181818;stroke-width:1.0;stroke-dasharray:7.0,7.0;"/><polygon fill="#181818" points="365.25,407.88,356.6596,403.0628,360.2715,407.4164,355.9179,411.0283,365.25,407.88" style="stroke:#181818;stroke-width:1.0;"/></g><!--link Post Management Module to Posts Store--><g id="link_Post Management Module_Posts Store"><path d="M487.9129,323.8131 C487.9551,323.9176 487.9974,324.0221 488.0399,324.1264 C488.2098,324.544 488.3822,324.9607 488.5572,325.3764 C489.2569,327.0392 489.9969,328.6857 490.7794,330.3043 C492.3442,333.5416 494.0788,336.6675 496,339.59 C498.13,342.83 525.7773,366.093 550.1573,386.373 " fill="none" id="Post Management Module-to-Posts Store" style="stroke:#181818;stroke-width:1.0;stroke-dasharray:7.0,7.0;"/><polygon fill="#181818" points="554.77,390.21,550.4089,381.3793,550.9261,387.0125,545.2929,387.5296,554.77,390.21" style="stroke:#181818;stroke-width:1.0;"/></g><!--link Comment Management Module to Comments Store--><g id="link_Comment Management Module_Comments Store"><path d="M853.9828,287.6756 C853.8146,287.8903 853.6442,288.1079 853.4715,288.3284 C852.7809,289.2101 852.0548,290.1371 851.2958,291.1061 C845.2234,298.8584 837.0406,309.3044 828.0088,320.8338 C809.945,343.8925 792.1855,366.562 777.4205,385.407 " fill="none" id="Comment Management Module-to-Comments Store" style="stroke:#181818;stroke-width:1.0;stroke-dasharray:7.0,7.0;"/><polygon fill="#181818" points="773.72,390.13,782.4193,385.5125,776.8037,386.1942,776.122,380.5785,773.72,390.13" style="stroke:#181818;stroke-width:1.0;"/></g><!--link Like Management Module to Likes Store--><g id="link_Like Management Module_Likes Store"><path d="M1293.9194,290.3952 C1293.6955,290.7278 1293.4674,291.0649 1293.2351,291.4063 C1292.7706,292.089 1292.2894,292.7889 1291.792,293.5039 C1289.8023,296.3639 1287.5531,299.4669 1285.0725,302.6925 C1275.15,315.595 1261.525,330.46 1246,339.59 C1164.21,387.71 1059.2888,403.666 992.3888,409.306 " fill="none" id="Like Management Module-to-Likes Store" style="stroke:#181818;stroke-width:1.0;stroke-dasharray:7.0,7.0;"/><polygon fill="#181818" points="986.41,409.81,995.7142,413.0398,991.3923,409.39,995.0422,405.0681,986.41,409.81" style="stroke:#181818;stroke-width:1.0;"/></g><!--SRC=[XPB1QiCm38RlUGhH1-ZUO11Q1eK6naft6JsejXPCNJl43ZkClllYrirYrwvzC4JwzLdAhmxP2Lk2nKupWH8QuWAXxZef65gXrG9-AnXFTnVk3VMmKPRwRsG4ZUQ3fBlAdQztRQo1Do8Edu9-3l-PhMw5cWKlLOBTe1e_pgHi2lv1hJ3Zur0pfWTbO_hBUEl1flckim9_rHDQ0gUSeTSaAOZ6v9K-tuXFuJNdu9MFy20HyxVYH0NuLHBrlLSoZCRSDLeyeadwwDmmiBEwfqFiRXprpJycN5T1r7UGswFbyZMx1-N2ZC7bmhn_vTgCD_Cv4yvDW_g_un_AhUWqNYX_idVpkSAYt39DqqpoI_K7]--></g></svg>